HIERARCHY
ROOT Hips
{
	OFFSET 0.00000 0.00000 0.00000
	CHANNELS 6 Xposition Yposition Zposition Yrotation Zrotation Xrotation 
	JOINT Lumbar
	{
		OFFSET 0 0 0
		CHANNELS 3 Zrotation Xrotation Yrotation
		JOINT Neck
		{
			OFFSET 0.00 0.2701 0.00
			CHANNELS 3 Zrotation Xrotation Yrotation
			End Site
			{
				OFFSET 0.00 0.1379 0.00
			}
		}
		JOINT RightShoulder
		{
			OFFSET 0.0119 0.2289 0.1181
			CHANNELS 3 Zrotation Xrotation Yrotation
			JOINT RightElbow
			{
				OFFSET 0.00 -0.1475 0.00
				CHANNELS 2 Zrotation Yrotation
				JOINT RightWrist
				{
					OFFSET 0.00 -0.1605 0.00
					CHANNELS 2 Zrotation Xrotation
					End Site
					{
						OFFSET 0.0040 -0.1068 0.0006
					}
				}
			}
		}
		JOINT LeftShoulder
		{
			OFFSET 0.0119 0.2289 -0.1181
			CHANNELS 3 Zrotation Xrotation Yrotation
			JOINT LeftElbow
			{
				OFFSET 0.00 -0.1475 0.00
				CHANNELS 2 Zrotation Yrotation
				JOINT LeftWrist
				{
					OFFSET 0.00 -0.1605 0.00
					CHANNELS 2 Zrotation Xrotation
					End Site
					{
						OFFSET 0.0040 -0.1068 -0.0006
					}
				}
			}
		}
	}
	JOINT RightHip
	{
		OFFSET 0.0316 -0.0424 0.0458
		CHANNELS 3 Zrotation Xrotation Yrotation
		JOINT RightKnee
		{
			OFFSET 0.00 -0.2438 0.00
			CHANNELS 1 Zrotation
			JOINT RightAnkle
			{
				OFFSET 0.00 -0.2449 0.00
				CHANNELS 3 Zrotation Xrotation Yrotation
				End Site
				{
					OFFSET 0.1237 -0.0542 0.0051
				}
			}
		}
	}
	JOINT LeftHip
	{
		OFFSET 0.0316 -0.0424 -0.0458
		CHANNELS 3 Zrotation Xrotation Yrotation
		JOINT LeftKnee
		{
			OFFSET 0.00 -0.2438 0.00
			CHANNELS 1 Zrotation
			JOINT LeftAnkle
			{
				OFFSET 0.00 -0.2449 0.00
				CHANNELS 3 Zrotation Xrotation Yrotation
				End Site
				{
					OFFSET 0.1237 -0.0542 -0.0051
				}
			}
		}
	}
}
MOTION
Frames: 35
Frame Time: 0.02
0 0.57926 0 179.89524 0 -3.73572 7.58109 5.11516 2.36698 -25.12606 -2.37915 -1.18875 21.5239 -60.45601 -73.67541 22.75986 71.93266 -24.01989 -3.09207 47.48608 72.79612 45.77228 14.21702 -91.97825 -30.2844 4.92283 -1.19693 7.1696 -0.07219 -9.68685 1.37663 -5.06667 -10.67312 -1.02862 1.48168 0.44798 -8.29187 5.96443 6.27676 9.43446
-9e-05 0.57926 -0.00015 179.8887 0 -3.72982 7.59898 5.065 2.34287 -25.23045 -2.30659 -1.15007 21.90181 -60.514 -73.34388 22.76689 71.7346 -24.11889 -2.98959 47.68128 72.7969 45.69931 14.24583 -91.81829 -30.03058 4.91369 -1.1861 7.17761 -0.07516 -9.72144 1.39462 -5.07553 -10.67441 -1.02761 1.48908 0.46675 -8.31134 5.97597 6.27969 9.43018
-0.00018 0.57925 -0.00031 179.88257 0 -3.72396 7.61659 5.01492 2.31843 -25.33361 -2.23355 -1.11122 22.27647 -60.57275 -73.01465 22.77387 71.538 -24.21768 -2.88777 47.87316 72.7968 45.62879 14.275 -91.65926 -29.77875 4.90466 -1.17538 7.18562 -0.07837 -9.75579 1.41245 -5.08433 -10.67575 -1.02668 1.4965 0.48512 -8.33047 5.98737 6.28253 9.42584
-0.00027 0.57924 -0.00046 179.87819 0 -3.71816 7.63325 4.96447 2.29215 -25.43267 -2.1578 -1.07122 22.64233 -60.63526 -72.69032 22.78089 71.34457 -24.31657 -2.78779 48.05314 72.79335 45.56869 14.30559 -91.5031 -29.53301 4.8962 -1.16507 7.19369 -0.08316 -9.78945 1.43006 -5.09285 -10.67684 -1.0261 1.50404 0.50185 -8.34839 5.99827 6.28493 9.42119
-0.00036 0.57923 -0.00061 179.86478 0 -3.71204 7.65498 4.91574 2.27526 -25.55318 -2.09629 -1.03722 23.05541 -60.67801 -72.33878 22.78787 71.13344 -24.41488 -2.67835 48.29552 72.80787 45.455 14.32832 -91.3326 -29.2557 4.88496 -1.15272 7.20141 -0.08028 -9.82668 1.44913 -5.10269 -10.67867 -1.02371 1.5109 0.52698 -8.37268 6.01179 6.28951 9.41815
-0.00044 0.57923 -0.00076 179.87029 0 -3.7066 7.66594 4.86356 2.23874 -25.62837 -2.00483 -0.9906 23.36782 -60.76243 -72.046 22.79479 70.96058 -24.51434 -2.58884 48.4061 72.78418 45.45368 14.36789 -91.19204 -29.045 4.87943 -1.14461 7.2099 -0.09314 -9.85636 1.46486 -5.10983 -10.67932 -1.02513 1.51919 0.53453 -8.38349 6.01976 6.28955 9.41173
-0.00048 0.57922 -0.00091 179.93163 0 -3.70279 7.64647 4.79911 2.14321 -25.57436 -1.82412 -0.90625 23.40441 -60.96928 -71.90555 22.80306 70.88692 -24.61986 -2.55562 48.13861 72.6518 45.78317 14.45512 -91.13728 -29.02303 4.89159 -1.1484 7.22045 -0.1553 -9.86563 1.47343 -5.10851 -10.67347 -1.03727 1.53171 0.49045 -8.35634 6.01201 6.27605 9.39518
-0.0005 0.57922 -0.00104 180.01136 0 -3.69971 7.61615 4.73165 2.02865 -25.47527 -1.61418 -0.80955 23.33929 -61.21711 -71.82576 22.81102 70.85289 -24.72614 -2.54238 47.74031 72.48117 46.22255 14.55945 -91.11161 -29.06753 4.90914 -1.15604 7.23177 -0.23221 -9.86776 1.47821 -5.10457 -10.66702 -1.05303 1.54562 0.42924 -8.31597 5.99873 6.25814 9.37538
-0.00053 0.57922 -0.00118 180.08053 0 -3.69643 7.59128 4.66723 1.92577 -25.39935 -1.42165 -0.72036 23.31895 -61.44165 -71.72495 22.81813 70.80497 -24.83031 -2.51901 47.41074 72.33012 46.59891 14.65504 -91.07117 -29.0783 4.92304 -1.16228 7.2428 -0.29886 -9.87214 1.48348 -5.10256 -10.66292 -1.06729 1.55873 0.37775 -8.28172 5.98824 6.24289 9.35747
-0.00057 0.57922 -0.00132 180.1594 0 -3.69255 7.56453 4.59562 1.81005 -25.31213 -1.21174 -0.6234 23.30351 -61.68574 -71.59793 22.82936 70.74009 -24.94185 -2.49961 47.04221 72.17034 47.031 14.75383 -91.03936 -29.10337 4.94217 -1.16865 7.25366 -0.38111 -9.87837 1.4942 -5.09769 -10.64999 -1.08175 1.57258 0.31779 -8.24579 5.97659 6.22488 9.33759
-0.00059 0.57922 -0.00145 180.2219 0 -3.69015 7.53874 4.53846 1.71663 -25.23774 -1.03104 -0.53938 23.2552 -61.899 -71.53817 22.83198 70.71943 -25.03829 -2.47727 46.7235 72.019 47.37241 14.85111 -90.99385 -29.11517 4.95149 -1.17366 7.26494 -0.4336 -9.88201 1.49234 -5.09782 -10.65538 -1.09561 1.58516 0.27177 -8.21176 5.96602 6.21155 9.32132
-0.0006 0.57922 -0.0015 180.23912 0 -3.6911 7.5213 4.52028 1.68873 -25.20987 -0.93828 -0.49628 23.13073 -62.01599 -71.66114 22.81097 70.81684 -25.09391 -2.43681 46.57898 71.90502 47.43766 14.93361 -90.92485 -29.06907 4.93394 -1.18989 7.27804 -0.40753 -9.85653 1.45964 -5.11539 -10.71023 -1.11535 1.59427 0.26551 -8.174 5.96001 6.21238 9.31343
-0.0006 0.57923 -0.00153 180.2383 0 -3.69361 7.50444 4.51701 1.68411 -25.19656 -0.87582 -0.46594 22.98023 -62.10089 -71.84551 22.78157 70.95715 -25.13518 -2.39367 46.49004 71.79932 47.40422 15.01718 -90.8364 -29.00914 4.90597 -1.20086 7.29128 -0.35003 -9.83419 1.41386 -5.13752 -10.78336 -1.1323 1.60193 0.27452 -8.14151 5.95522 6.21809 9.30982
-0.00059 0.57923 -0.00157 180.24299 0 -3.69579 7.48557 4.50803 1.66925 -25.17641 -0.79948 -0.42867 22.84637 -62.20102 -71.99652 22.75567 71.0731 -25.18099 -2.3551 46.37031 71.68762 47.41964 15.10196 -90.74356 -28.95766 4.88185 -1.2048 7.30401 -0.30169 -9.82462 1.3721 -5.15566 -10.84947 -1.14564 1.61006 0.27834 -8.11385 5.94975 6.22145 9.30566
-0.00064 0.57923 -0.00162 180.26011 0 -3.69643 7.47452 4.49459 1.65214 -25.15522 -0.72286 -0.39687 22.68209 -62.29925 -72.1808 22.73 71.20764 -25.23088 -2.30302 46.26195 71.58676 47.43614 15.17204 -90.71017 -28.89567 4.86192 -1.25187 7.31902 -0.27393 -9.7505 1.3383 -5.18188 -10.91177 -1.18175 1.61923 0.27376 -8.05275 5.94467 6.22508 9.29505
-0.00056 0.57925 -0.00163 180.24623 0 -3.7006 7.44641 4.49382 1.64569 -25.14077 -0.65405 -0.35547 22.58453 -62.39406 -72.29941 22.70318 71.31728 -25.27426 -2.27825 46.15412 71.46235 47.40772 15.28295 -90.54468 -28.85604 4.83037 -1.20374 7.32885 -0.19762 -9.81714 1.28489 -5.19227 -10.98429 -1.16713 1.62562 0.29104 -8.06583 5.93905 6.22951 9.2995
-0.00017 0.57936 -0.00156 180.15622 0 -3.71447 7.37983 4.52627 1.66125 -25.13703 -0.60257 -0.2968 22.61089 -62.47876 -72.30165 22.66565 71.31424 -25.255 -2.32902 45.9559 71.30034 47.42809 15.42128 -90.05472 -28.84364 4.77285 -0.92877 7.32834 0.02244 -10.22435 1.17993 -5.1589 -11.09811 -1.03486 1.62727 0.36172 -8.25588 5.93246 6.23351 9.33894
0.00037 0.57949 -0.00144 180.03465 0 -3.7319 7.29422 4.57066 1.68699 -25.14056 -0.55747 -0.22605 22.72043 -62.56144 -72.21594 22.63007 71.29223 -25.23737 -2.40752 45.77207 71.10893 47.3763 15.61788 -89.43105 -28.8623 4.70377 -0.55173 7.32192 0.28729 -10.78146 1.05556 -5.10918 -11.21817 -0.84732 1.62589 0.45519 -8.52539 5.9252 6.23834 9.39397
0.00089 0.57962 -0.00133 179.92405 0 -3.74728 7.21197 4.60831 1.70956 -25.14391 -0.5075 -0.15247 22.83336 -62.65172 -72.12342 22.59859 71.2987 -25.25224 -2.47336 45.63304 70.91196 47.2621 15.84173 -88.83835 -28.88954 4.63696 -0.19849 7.31551 0.5201 -11.30172 0.94083 -5.06635 -11.32406 -0.67106 1.62395 0.53964 -8.77605 5.91767 6.24389 9.44606
0.0012 0.57974 -0.00127 179.82685 0 -3.76398 7.15314 4.65185 1.72754 -25.13479 -0.46683 -0.11341 22.76246 -62.71698 -72.24902 22.54155 71.21659 -25.13164 -2.53871 45.27714 70.79553 47.55488 15.83301 -88.34882 -28.81499 4.58038 0.05991 7.32014 0.80257 -11.69228 0.82326 -5.0263 -11.47901 -0.55403 1.62932 0.61639 -8.95414 5.91239 6.24538 9.48263
0.002 0.57987 -0.00109 179.69476 0 -3.77945 7.03964 4.686 1.75626 -25.15288 -0.40797 -0.00074 23.10578 -62.8289 -71.87549 22.5436 71.32177 -25.28705 -2.61252 45.37812 70.50378 46.97353 16.32972 -87.64044 -28.96694 4.50239 0.53962 7.3007 0.99276 -12.38574 0.70581 -4.97611 -11.53229 -0.29942 1.61977 0.71764 -9.30203 5.90252 6.25496 9.55287
0.00404 0.58003 -0.00057 179.47103 0 -3.78507 6.79101 4.68938 1.8201 -25.24651 -0.2963 0.32375 24.47322 -63.11398 -70.34516 22.66705 71.88104 -26.26504 -2.69577 46.71261 69.73783 44.09056 18.14679 -86.12232 -29.67687 4.3463 1.60765 7.21384 0.90995 -13.90047 0.60509 -4.90527 -11.30938 0.31181 1.56171 0.85334 -10.09966 5.87762 6.29085 9.73219
0.0066 0.5802 8e-05 179.21355 0 -3.79059 6.4857 4.68335 1.89276 -25.36658 -0.16576 0.71984 26.27038 -63.43634 -68.28004 22.86018 72.64161 -27.51138 -2.78787 48.50799 68.79501 40.31648 20.48186 -84.43161 -30.62441 4.17304 2.89354 7.10371 0.73445 -15.70893 0.50303 -4.82419 -10.98276 1.06109 1.49057 1.01806 -11.06455 5.84839 6.33401 9.94112
0.00898 0.58036 0.00068 178.9741 0 -3.79951 6.19923 4.68263 1.9561 -25.47336 -0.04483 1.07563 27.93989 -63.71522 -66.32557 23.04531 73.35459 -28.59261 -2.88069 50.11168 67.93253 36.8847 22.61983 -82.97807 -31.50311 4.02214 4.07939 7.00544 0.6053 -17.37117 0.39409 -4.7455 -10.69946 1.75395 1.43034 1.18749 -11.9536 5.82301 6.37112 10.1234
0.01112 0.58056 0.00123 178.72375 0 -3.79342 5.94217 4.67732 2.04237 -25.58673 0.0787 1.46448 29.33896 -64.11307 -64.91814 23.12022 73.88277 -29.8482 -2.95467 51.65213 67.07296 33.70146 24.59823 -80.85585 -32.21969 3.80991 5.27689 6.9003 0.45771 -19.10014 0.31624 -4.67557 -10.43223 2.42335 1.34779 1.28194 -12.84787 5.79046 6.41999 10.36191
0.01388 0.58066 0.00192 178.48651 0 -3.81974 5.60959 4.67997 2.08267 -25.69133 0.20331 1.80145 31.38694 -64.26323 -62.25655 23.45423 74.84247 -30.81423 -3.06935 53.41949 66.16101 29.80677 27.03106 -80.07941 -33.3274 3.72079 6.49584 6.80559 0.32867 -20.7482 0.17335 -4.58549 -10.10712 3.17208 1.31021 1.53941 -13.76598 5.77084 6.4459 10.49018
0.01817 0.58047 0.00298 178.31021 0 -3.9247 5.09183 4.69975 1.99518 -25.77606 0.30972 1.97706 35.25061 -63.79439 -56.16823 24.37462 76.95542 -30.82889 -3.2965 55.81891 65.18627 24.02062 30.59034 -83.13249 -35.47936 3.98291 7.75976 6.73191 0.25025 -22.18495 -0.14405 -4.44019 -9.64618 4.11906 1.38625 2.23711 -14.74206 5.79602 6.40803 10.30723
0.02307 0.58018 0.00419 178.14485 0 -4.06396 4.49874 4.72892 1.86088 -25.84932 0.41962 2.09837 39.72607 -63.06065 -48.85555 25.57354 79.49247 -30.55805 -3.56361 58.40703 64.15681 17.5768 34.58649 -87.53511 -38.01245 4.36872 9.02945 6.67202 0.19818 -23.5148 -0.5258 -4.27591 -9.13183 5.13806 1.51026 3.09774 -15.72923 5.83255 6.34655 10.01294
0.02773 0.57994 0.00534 177.9645 0 -4.195 3.9335 4.75873 1.747 -25.92026 0.53892 2.24442 43.83892 -62.40032 -42.16412 26.71933 81.8299 -30.47554 -3.81097 60.83316 63.12855 11.52929 38.38671 -91.27159 -40.35618 4.69274 10.27097 6.61472 0.14864 -24.83638 -0.88342 -4.12121 -8.64149 6.11577 1.62179 3.88619 -16.68994 5.85906 6.29491 9.76831
0.03225 0.57968 0.00646 177.82739 0 -4.29624 3.3916 4.76847 1.63679 -26.02255 0.61283 2.39134 48.33184 -61.94179 -35.17495 27.56045 84.20863 -30.15882 -4.06592 63.60378 62.19828 5.03873 42.20473 -95.21755 -42.77623 5.03783 11.62998 6.51941 0.0332 -26.40381 -1.22707 -3.96024 -8.1444 7.13598 1.69487 4.66999 -17.74925 5.90731 6.2472 9.52555
0.0372 0.57943 0.00768 177.60057 0 -4.46606 2.78599 4.82113 1.50802 -26.05818 0.78145 2.52433 52.16282 -60.9968 -28.5288 29.09763 86.59286 -30.25394 -4.31374 65.68748 61.04787 -0.67285 46.06925 -99.05928 -45.12493 5.37097 12.74034 6.50659 0.06432 -27.43556 -1.60561 -3.81031 -7.65536 8.08107 1.85788 5.49902 -18.60077 5.9113 6.18571 9.25601
0.04322 0.57923 0.00915 177.14649 0 -4.83047 2.00586 5.00033 1.3368 -25.89772 1.2143 2.61713 54.09763 -58.79826 -23.07477 32.51771 88.9446 -31.59476 -4.53805 65.89426 59.34856 -4.0723 50.06311 -102.20026 -47.17745 5.62067 13.18258 6.71971 0.47515 -26.96848 -2.14679 -3.67535 -7.15561 8.81692 2.27216 6.43708 -18.8998 5.8055 6.09096 8.90532
0.04964 0.57904 0.01071 176.59771 0 -5.25987 1.168 5.22036 1.14902 -25.67319 1.74161 2.70024 55.32685 -56.11594 -18.02074 36.62026 91.27626 -33.35101 -4.75271 65.38783 57.42145 -6.65952 54.06288 -105.20317 -49.14275 5.85771 13.36982 7.01455 1.03425 -25.97626 -2.70625 -3.55585 -6.67417 9.47123 2.77246 7.41058 -18.98437 5.65217 5.98332 8.53755
0.05586 0.57885 0.01223 176.07717 0 -5.65101 0.36755 5.41518 0.97051 -25.48762 2.22322 2.7973 56.82473 -53.63674 -12.82264 40.39439 93.57863 -34.89084 -4.96775 65.16319 55.57025 -9.61567 57.99045 -108.32817 -51.15338 6.11416 13.6593 7.27191 1.54093 -25.24888 -3.20264 -3.44275 -6.21599 10.15157 3.22404 8.35173 -19.15008 5.51042 5.8822 8.20036
0.06215 0.57865 0.01377 175.61901 0 -6.08149 -0.48415 5.63905 0.78287 -25.26016 2.71658 2.85222 58.5676 -51.21297 -7.42382 44.26635 96.05594 -36.53891 -5.20083 65.12718 53.83572 -12.6008 62.23956 -111.26169 -53.16227 6.31817 14.00565 7.53383 1.99451 -24.39416 -3.92958 -3.27288 -5.62561 10.88029 3.71858 9.36642 -19.38371 5.41051 5.77742 7.764
